<?xml version="1.0" standalone="no"?>
<!DOCTYPE svg PUBLIC "-//W3C//DTD SVG 20010904//EN"
 "http://www.w3.org/TR/2001/REC-SVG-20010904/DTD/svg10.dtd">
<svg version="1.0" xmlns="http://www.w3.org/2000/svg"
 width="1024.000000pt" height="1024.000000pt" viewBox="0 0 1024.000000 1024.000000"
 preserveAspectRatio="xMidYMid meet">
<metadata>
Created by potrace 1.11, written by Peter Selinger 2001-2013
</metadata>
<g transform="translate(0.000000,1024.000000) scale(0.100000,-0.100000)"
fill="#000000" stroke="none">
<path d="M0 5120 l0 -5120 5120 0 5120 0 0 5120 0 5120 -5120 0 -5120 0 0
-5120z m6942 3803 c-1009 -2 -2656 -2 -3660 0 -1005 1 -180 2 1833 2 2013 0
2835 -1 1827 -2z m-5499 -10 c-7 -2 -19 -2 -25 0 -7 3 -2 5 12 5 14 0 19 -2
13 -5z m7380 0 c-7 -2 -21 -2 -30 0 -10 3 -4 5 12 5 17 0 24 -2 18 -5z m-7498
-32 c-120 -42 -190 -82 -280 -160 l-40 -35 35 37 c19 21 63 56 98 79 66 43
213 107 247 107 11 1 -16 -12 -60 -28z m7625 -2 c86 -33 210 -109 250 -154 14
-15 -3 -5 -38 23 -78 61 -154 102 -252 136 -41 14 -67 26 -57 26 10 0 53 -14
97 -31z m-7987 -243 c-49 -56 -108 -156 -135 -229 -11 -31 -23 -56 -25 -53 -7
7 42 122 78 182 32 53 105 144 116 144 2 0 -13 -20 -34 -44z m8396 -99 c36
-61 85 -176 78 -183 -2 -3 -14 22 -25 53 -26 71 -84 170 -135 232 l-39 46 44
-46 c23 -26 58 -72 77 -102z m-6412 -154 c-258 -2 -676 -2 -930 0 -254 1 -43
2 468 2 512 0 719 -1 462 -2z m3563 -3 c-1202 -3 -2192 -9 -2201 -13 -9 -4
-136 -188 -283 -407 l-266 -400 -1199 0 -1200 0 -20 -26 c-20 -26 -21 -38 -21
-376 l0 -349 25 -24 24 -25 3749 0 c3677 0 3750 0 3773 19 l24 19 5 694 5 693
3 -688 2 -689 -29 -29 -29 -29 -3752 0 -3752 0 -29 29 -29 29 0 350 0 350 26
31 26 31 1197 0 1198 0 264 396 c159 240 273 401 289 409 21 12 366 14 2205
12 l2180 -2 -2185 -5z m-5008 -15 c-23 -7 -54 -21 -68 -30 -15 -9 -23 -12 -19
-5 10 16 85 50 110 49 11 0 1 -6 -23 -14z m1963 -10 l25 -24 0 -219 0 -219
-26 -27 c-17 -16 -37 -25 -53 -25 l-26 2 25 4 c14 3 35 14 48 26 21 20 22 25
22 237 0 225 -2 235 -45 258 -11 6 -14 12 -7 12 7 0 24 -11 37 -25z m5311 6
c23 -10 45 -24 49 -31 4 -7 -4 -4 -19 5 -14 9 -45 23 -68 30 -24 8 -34 14 -23
14 11 0 39 -8 61 -18z m-7979 -43 c-3 -8 -6 -5 -6 6 -1 11 2 17 5 13 3 -3 4
-12 1 -19z m8650 0 c-3 -8 -6 -5 -6 6 -1 11 2 17 5 13 3 -3 4 -12 1 -19z
m-8047 -2 c0 -2 -8 -10 -17 -17 -16 -13 -17 -12 -4 4 13 16 21 21 21 13z
m7461 -13 c13 -16 12 -17 -3 -4 -10 7 -18 15 -18 17 0 8 8 3 21 -13z m-8074
-35 c-3 -7 -5 -2 -5 12 0 14 2 19 5 13 2 -7 2 -19 0 -25z m8670 -5 c-3 -10 -5
-4 -5 12 0 17 2 24 5 18 2 -7 2 -21 0 -30z m-8095 5 c-5 -7 -17 -29 -26 -48
-10 -22 -14 -26 -10 -10 7 28 31 70 40 70 4 0 2 -6 -4 -12z m7548 -41 c0 -12
0 -11 -24 28 l-17 30 20 -24 c12 -13 21 -28 21 -34z m-8133 -44 c-2 -16 -4 -5
-4 22 0 28 2 40 4 28 2 -13 2 -35 0 -50z m8690 -5 c-2 -13 -4 -3 -4 22 0 25 2
35 4 23 2 -13 2 -33 0 -45z m-8120 -307 c14 -12 35 -21 46 -21 11 0 18 -3 14
-6 -11 -11 -56 5 -77 28 -18 20 -20 33 -18 167 l2 146 3 -147 c3 -145 4 -147
30 -167z m-580 -4263 c-1 -832 -2 -154 -2 1507 0 1661 1 2342 2 1513 2 -828 2
-2187 0 -3020z m8710 0 c-1 -832 -2 -154 -2 1507 0 1661 1 2342 2 1513 2 -828
2 -2187 0 -3020z m-4299 2735 c-26 -2 -71 -2 -100 0 -29 2 -8 3 47 3 55 0 79
-1 53 -3z m-225 -10 c-13 -2 -35 -2 -50 0 -16 2 -5 4 22 4 28 0 40 -2 28 -4z
m390 0 c-13 -2 -33 -2 -45 0 -13 2 -3 4 22 4 25 0 35 -2 23 -4z m-485 -10
c-10 -2 -28 -2 -40 0 -13 2 -5 4 17 4 22 1 32 -1 23 -4z m570 0 c-10 -2 -28
-2 -40 0 -13 2 -5 4 17 4 22 1 32 -1 23 -4z m-645 -10 c-7 -2 -21 -2 -30 0
-10 3 -4 5 12 5 17 0 24 -2 18 -5z m710 0 c-7 -2 -21 -2 -30 0 -10 3 -4 5 12
5 17 0 24 -2 18 -5z m-770 -10 c-7 -2 -19 -2 -25 0 -7 3 -2 5 12 5 14 0 19 -2
13 -5z m820 0 c-7 -2 -19 -2 -25 0 -7 3 -2 5 12 5 14 0 19 -2 13 -5z m-870
-10 c-7 -2 -19 -2 -25 0 -7 3 -2 5 12 5 14 0 19 -2 13 -5z m947 -3 c20 -6 21
-8 5 -8 -11 0 -31 4 -45 8 -20 6 -21 8 -5 8 11 0 31 -4 45 -8z m-993 -6 c-3
-3 -12 -4 -19 -1 -8 3 -5 6 6 6 11 1 17 -2 13 -5z m-40 -10 c-3 -3 -12 -4 -19
-1 -8 3 -5 6 6 6 11 1 17 -2 13 -5z m1108 -4 c13 -5 14 -9 5 -9 -8 0 -24 4
-35 9 -13 5 -14 9 -5 9 8 0 24 -4 35 -9z m-1252 -39 c-113 -39 -334 -148 -429
-211 -66 -44 -194 -140 -214 -160 -3 -3 -30 -27 -60 -55 l-55 -50 45 48 c147
159 488 367 725 442 79 25 68 13 -12 -14z m1358 8 c90 -29 318 -140 413 -201
98 -62 246 -180 301 -239 37 -41 36 -40 -15 7 -77 70 -181 151 -274 213 -95
64 -316 173 -429 212 -45 15 -77 28 -71 28 6 1 40 -8 75 -20z m-733 -446 c-21
-2 -55 -2 -75 0 -21 2 -4 4 37 4 41 0 58 -2 38 -4z m169 0 c-20 -2 -52 -2 -70
0 -17 2 0 4 38 4 39 0 53 -2 32 -4z m-304 -10 c-7 -2 -21 -2 -30 0 -10 3 -4 5
12 5 17 0 24 -2 18 -5z m410 0 c-7 -2 -21 -2 -30 0 -10 3 -4 5 12 5 17 0 24
-2 18 -5z m-475 -10 c-10 -2 -26 -2 -35 0 -10 3 -2 5 17 5 19 0 27 -2 18 -5z
m540 0 c-10 -2 -26 -2 -35 0 -10 3 -2 5 17 5 19 0 27 -2 18 -5z m-605 -10 c-7
-2 -19 -2 -25 0 -7 3 -2 5 12 5 14 0 19 -2 13 -5z m660 0 c-7 -2 -19 -2 -25 0
-7 3 -2 5 12 5 14 0 19 -2 13 -5z m-787 -33 c-212 -68 -428 -202 -602 -375
-158 -156 -269 -322 -345 -514 -21 -53 -39 -90 -39 -84 0 22 60 166 102 243
128 235 373 486 603 615 117 66 309 144 355 143 8 0 -25 -13 -74 -28z m849 20
c13 -5 14 -9 5 -9 -8 0 -24 4 -35 9 -13 5 -14 9 -5 9 8 0 24 -4 35 -9z m-1922
-87 c-188 -213 -298 -390 -383 -613 -44 -117 -51 -132 -43 -95 9 45 60 169
110 269 80 159 196 324 327 464 74 79 67 63 -11 -25z m2087 29 c304 -129 597
-398 758 -692 42 -77 102 -221 102 -243 0 -6 -18 31 -39 84 -45 113 -112 233
-190 339 -78 106 -239 264 -351 344 -94 67 -263 156 -370 196 -30 11 -41 18
-25 14 17 -3 68 -22 115 -42z m1052 -138 c74 -93 156 -221 206 -321 49 -97
112 -247 112 -265 0 -7 -18 30 -39 82 -95 235 -196 398 -379 610 -65 75 -67
78 -14 24 32 -34 84 -92 114 -130z m-1609 -161 c-7 -2 -19 -2 -25 0 -7 3 -2 5
12 5 14 0 19 -2 13 -5z m-85 -10 c-16 -2 -40 -2 -55 0 -16 2 -3 4 27 4 30 0
43 -2 28 -4z m188 -12 c23 -10 45 -24 49 -31 4 -7 -5 -4 -20 6 -15 10 -48 23
-73 30 -31 8 -38 13 -22 13 14 0 44 -8 66 -18z m-283 2 c-7 -2 -19 -2 -25 0
-7 3 -2 5 12 5 14 0 19 -2 13 -5z m-50 -10 c-7 -2 -19 -2 -25 0 -7 3 -2 5 12
5 14 0 19 -2 13 -5z m-123 -32 c-122 -40 -240 -108 -355 -204 -39 -33 -49 -39
-30 -18 87 96 364 249 450 250 11 0 -18 -12 -65 -28z m541 -18 c13 -16 12 -17
-3 -4 -10 7 -18 15 -18 17 0 8 8 3 21 -13z m50 -77 c10 -22 18 -52 18 -66 0
-16 -5 -9 -13 22 -7 25 -20 58 -30 73 -10 15 -13 24 -6 20 7 -4 21 -26 31 -49z
m-5 -240 c-14 -29 -36 -61 -48 -72 -18 -15 -17 -12 5 17 32 43 57 99 58 136
l2 28 4 -28 c3 -18 -5 -49 -21 -81z m-1063 7 c-108 -127 -167 -230 -214 -373
-16 -47 -28 -78 -29 -69 -1 51 86 247 148 334 42 58 132 165 139 165 3 0 -17
-26 -44 -57z m2796 -168 c0 -11 -9 7 -19 40 -11 33 -19 65 -19 70 1 17 37 -89
38 -110z m-3943 29 c-8 -27 -15 -43 -15 -35 -1 18 21 92 26 87 2 -2 -2 -26
-11 -52z m2128 35 c-10 -17 -86 -49 -114 -48 -16 0 -8 5 22 13 25 7 57 20 70
29 28 19 31 20 22 6z m-176 -56 c-16 -2 -40 -2 -55 0 -16 2 -3 4 27 4 30 0 43
-2 28 -4z m-138 -22 c-193 -62 -334 -217 -379 -416 -6 -28 -9 -32 -10 -15 -1
45 46 158 93 224 49 69 133 144 200 178 54 28 107 47 131 47 11 0 -5 -8 -35
-18z m-1833 -43 c-3 -7 -5 -2 -5 12 0 14 2 19 5 13 2 -7 2 -19 0 -25z m3970 0
c-3 -7 -5 -2 -5 12 0 14 2 19 5 13 2 -7 2 -19 0 -25z m-3980 -50 c-3 -7 -5 -2
-5 12 0 14 2 19 5 13 2 -7 2 -19 0 -25z m4001 -38 c0 -22 -1 -22 -8 5 -4 17
-8 39 -8 50 0 16 2 15 8 -5 4 -14 8 -36 8 -50z m-3444 16 c-3 -15 -8 -25 -11
-23 -2 3 -1 17 3 31 3 15 8 25 11 23 2 -3 1 -17 -3 -31z m2885 -16 c0 -9 -4
-8 -9 5 -5 11 -9 27 -9 35 0 9 4 8 9 -5 5 -11 9 -27 9 -35z m-3452 -12 c-3 -7
-5 -2 -5 12 0 14 2 19 5 13 2 -7 2 -19 0 -25z m544 -59 c-5 -26 -9 -34 -10
-19 -1 27 9 73 15 67 2 -2 0 -23 -5 -48z m2928 -8 c1 -35 -5 -22 -12 24 -5 28
-4 34 3 20 5 -11 9 -31 9 -44z m-3482 2 c-3 -10 -5 -2 -5 17 0 19 2 27 5 18 2
-10 2 -26 0 -35z m4030 0 c-3 -10 -5 -2 -5 17 0 19 2 27 5 18 2 -10 2 -26 0
-35z m10 -75 c-2 -13 -4 -5 -4 17 -1 22 1 32 4 23 2 -10 2 -28 0 -40z m-4050
-10 c-2 -13 -4 -5 -4 17 -1 22 1 32 4 23 2 -10 2 -28 0 -40z m3500 15 c-3 -10
-5 -4 -5 12 0 17 2 24 5 18 2 -7 2 -21 0 -30z m-2950 -10 c-3 -10 -5 -4 -5 12
0 17 2 24 5 18 2 -7 2 -21 0 -30z m410 -25 c-3 -7 -5 -2 -5 12 0 14 2 19 5 13
2 -7 2 -19 0 -25z m2550 -40 c-2 -13 -4 -5 -4 17 -1 22 1 32 4 23 2 -10 2 -28
0 -40z m-2970 5 c-3 -10 -5 -4 -5 12 0 17 2 24 5 18 2 -7 2 -21 0 -30z m-550
-95 c-2 -24 -4 -5 -4 42 0 47 2 66 4 43 2 -24 2 -62 0 -85z m4070 -11 c-2 -23
-3 -1 -3 48 0 50 1 68 3 42 2 -26 2 -67 0 -90z m-3110 91 c-3 -7 -5 -2 -5 12
0 14 2 19 5 13 2 -7 2 -19 0 -25z m-10 -170 c-2 -29 -3 -8 -3 47 0 55 1 79 3
53 2 -26 2 -71 0 -100z m-410 -31 c-2 -23 -3 -1 -3 48 0 50 1 68 3 42 2 -26 2
-67 0 -90z m2990 -4 c-2 -27 -3 -5 -3 47 0 52 1 74 3 48 2 -27 2 -69 0 -95z
m-2040 30 c-2 -16 -4 -5 -4 22 0 28 2 40 4 28 2 -13 2 -35 0 -50z m-1490 -136
c-2 -23 -3 -1 -3 48 0 50 1 68 3 42 2 -26 2 -67 0 -90z m4070 1 c-2 -24 -4 -5
-4 42 0 47 2 66 4 43 2 -24 2 -62 0 -85z m-2597 55 c-11 -17 -11 -17 -6 0 3
10 6 24 7 30 0 9 2 9 5 0 3 -7 0 -20 -6 -30z m-466 -68 c16 -25 17 -27 2 -16
-9 8 -24 27 -32 42 -16 33 -19 53 -2 24 6 -11 20 -33 32 -50z m436 5 c-24 -33
-95 -90 -113 -90 -6 0 10 13 36 30 25 16 56 45 69 64 13 19 24 33 26 31 3 -2
-6 -18 -18 -35z m-893 -32 c-2 -13 -4 -3 -4 22 0 25 2 35 4 23 2 -13 2 -33 0
-45z m2970 0 c-2 -13 -4 -3 -4 22 0 25 2 35 4 23 2 -13 2 -33 0 -45z m-2412
-56 c-5 -5 -63 26 -69 37 -4 5 12 0 33 -12 22 -12 38 -23 36 -25z m-1098 -14
c-2 -13 -4 -5 -4 17 -1 22 1 32 4 23 2 -10 2 -28 0 -40z m4050 0 c-2 -13 -4
-5 -4 17 -1 22 1 32 4 23 2 -10 2 -28 0 -40z m-3500 5 c-3 -10 -5 -4 -5 12 0
17 2 24 5 18 2 -7 2 -21 0 -30z m2950 0 c-3 -10 -5 -4 -5 12 0 17 2 24 5 18 2
-7 2 -21 0 -30z m-2260 -10 c-20 -2 -52 -2 -70 0 -17 2 0 4 38 4 39 0 53 -2
32 -4z m-680 -50 c-3 -10 -5 -4 -5 12 0 17 2 24 5 18 2 -7 2 -21 0 -30z m2930
0 c-3 -10 -5 -4 -5 12 0 17 2 24 5 18 2 -7 2 -21 0 -30z m-3480 -20 c-3 -10
-5 -2 -5 17 0 19 2 27 5 18 2 -10 2 -26 0 -35z m4030 -5 c-2 -13 -4 -5 -4 17
-1 22 1 32 4 23 2 -10 2 -28 0 -40z m-3379 -261 c57 -125 163 -283 261 -392
l45 -50 -47 45 c-133 125 -282 385 -341 592 -27 94 -16 79 18 -27 18 -55 47
-131 64 -168z m2816 229 c-3 -15 -8 -25 -11 -23 -2 3 -1 17 3 31 3 15 8 25 11
23 2 -3 1 -17 -3 -31z m-3457 -18 c-3 -7 -5 -2 -5 12 0 14 2 19 5 13 2 -7 2
-19 0 -25z m4002 -52 c-7 -36 -14 -64 -17 -61 -2 2 1 34 8 70 7 36 14 64 17
62 2 -3 -2 -34 -8 -71z m-3952 -141 c81 -285 236 -554 452 -790 54 -59 55 -59
7 -15 -98 92 -233 278 -335 462 -65 119 -154 376 -165 478 l-6 45 11 -45 c5
-25 22 -85 36 -135z m3373 100 c-54 -163 -189 -384 -309 -505 -50 -51 -54 -53
-14 -10 141 157 266 365 319 533 10 31 19 55 22 53 2 -3 -6 -35 -18 -71z m532
-136 c-58 -184 -110 -293 -226 -479 -52 -84 -172 -234 -227 -285 -41 -38 -41
-37 7 15 209 230 357 487 444 772 13 43 25 76 27 74 3 -2 -9 -46 -25 -97z
m-2779 -612 c87 -62 239 -138 352 -177 50 -17 74 -28 55 -24 -51 9 -204 71
-289 117 -89 49 -206 135 -281 206 -49 46 -46 45 20 -11 41 -35 105 -85 143
-111z m1832 132 c-50 -51 -188 -154 -280 -207 -101 -59 -347 -154 -361 -139
-3 2 24 12 58 22 94 26 218 78 300 126 85 49 240 163 282 208 17 17 32 31 35
31 3 0 -13 -18 -34 -41z m-1322 -356 c-7 -2 -19 -2 -25 0 -7 3 -2 5 12 5 14 0
19 -2 13 -5z m660 0 c-7 -2 -19 -2 -25 0 -7 3 -2 5 12 5 14 0 19 -2 13 -5z
m1042 -44 c-96 -97 -315 -254 -455 -324 -121 -61 -378 -155 -420 -154 -8 0 32
15 90 33 206 65 337 126 490 226 102 68 257 189 304 239 17 17 32 31 35 31 3
0 -17 -23 -44 -51z m-2640 -101 c237 -186 451 -291 770 -377 l40 -10 -40 5
c-92 12 -311 91 -458 165 -133 67 -361 232 -442 320 l-40 44 50 -46 c28 -25
82 -71 120 -101z m998 135 c-7 -2 -21 -2 -30 0 -10 3 -4 5 12 5 17 0 24 -2 18
-5z m550 0 c-7 -2 -21 -2 -30 0 -10 3 -4 5 12 5 17 0 24 -2 18 -5z m-490 -10
c-7 -2 -21 -2 -30 0 -10 3 -4 5 12 5 17 0 24 -2 18 -5z m430 0 c-7 -2 -21 -2
-30 0 -10 3 -4 5 12 5 17 0 24 -2 18 -5z m-325 -10 c-15 -2 -42 -2 -60 0 -18
2 -6 4 27 4 33 0 48 -2 33 -4z m239 0 c-20 -2 -52 -2 -70 0 -17 2 0 4 38 4 39
0 53 -2 32 -4z m-134 -10 c-7 -2 -19 -2 -25 0 -7 3 -2 5 12 5 14 0 19 -2 13
-5z m470 -490 c-7 -2 -19 -2 -25 0 -7 3 -2 5 12 5 14 0 19 -2 13 -5z m-858
-13 c27 -7 27 -8 5 -8 -14 0 -36 4 -50 8 -20 6 -21 8 -5 8 11 0 34 -4 50 -8z
m795 0 c-14 -4 -36 -8 -50 -8 -22 0 -22 1 5 8 17 4 39 8 50 8 16 0 15 -2 -5
-8z m-692 -17 c-10 -2 -28 -2 -40 0 -13 2 -5 4 17 4 22 1 32 -1 23 -4z m590 0
c-10 -2 -28 -2 -40 0 -13 2 -5 4 17 4 22 1 32 -1 23 -4z m-490 -10 c-16 -2
-40 -2 -55 0 -16 2 -3 4 27 4 30 0 43 -2 28 -4z m395 0 c-13 -2 -33 -2 -45 0
-13 2 -3 4 22 4 25 0 35 -2 23 -4z m-175 -10 c-26 -2 -71 -2 -100 0 -29 2 -8
3 47 3 55 0 79 -1 53 -3z m-4391 -245 c-2 -13 -4 -3 -4 22 0 25 2 35 4 23 2
-13 2 -33 0 -45z m8690 0 c-2 -13 -4 -5 -4 17 -1 22 1 32 4 23 2 -10 2 -28 0
-40z m-8680 -65 c-3 -10 -5 -4 -5 12 0 17 2 24 5 18 2 -7 2 -21 0 -30z m8670
0 c-3 -10 -5 -4 -5 12 0 17 2 24 5 18 2 -7 2 -21 0 -30z m-8660 -45 c-3 -8 -6
-5 -6 6 -1 11 2 17 5 13 3 -3 4 -12 1 -19z m8650 0 c-3 -8 -6 -5 -6 6 -1 11 2
17 5 13 3 -3 4 -12 1 -19z m-8628 -58 c0 -10 -3 -8 -9 5 -12 27 -12 43 0 25 5
-8 9 -22 9 -30z m8612 9 c-5 -13 -10 -19 -10 -12 -1 15 10 45 15 40 3 -2 0
-15 -5 -28z m-8512 -199 c13 -19 38 -51 55 -70 l31 -35 -34 30 c-36 32 -85
105 -126 184 -39 78 -29 74 13 -4 20 -39 48 -86 61 -105z m8475 108 c-36 -70
-95 -157 -129 -188 -16 -14 -5 4 24 40 28 35 68 97 88 137 21 39 39 70 41 68
2 -1 -9 -27 -24 -57z m-8264 -315 c63 -42 103 -62 195 -94 44 -16 73 -29 63
-29 -9 0 -53 14 -97 31 -91 35 -211 109 -256 160 l-30 33 40 -35 c23 -19 61
-49 85 -66z m8074 66 c-73 -79 -267 -178 -374 -192 l-45 -6 51 13 c136 35 297
119 363 190 14 14 27 26 30 26 2 0 -8 -14 -25 -31z m-7751 -196 c-7 -2 -21 -2
-30 0 -10 3 -4 5 12 5 17 0 24 -2 18 -5z m5499 -10 c-1009 -2 -2656 -2 -3660
0 -1005 1 -180 2 1833 2 2013 0 2835 -1 1827 -2z"/>
</g>
</svg>
